<svg id="svg" version="1.1" xmlns="http://www.w3.org/2000/svg" xmlns:xlink="http://www.w3.org/1999/xlink" width="400" height="400" viewBox="0, 0, 400,400"><g id="svgg"><path id="path0" d="M322.491 220.952 C 283.253 261.909,251.204 295.474,251.270 295.541 C 251.978 296.249,345.541 295.689,349.097 294.956 C 373.034 290.023,389.755 271.489,397.232 241.602 C 400.014 230.479,400.000 230.696,400.000 199.199 L 400.000 170.765 399.030 165.037 C 398.496 161.887,397.851 158.577,397.596 157.682 C 397.341 156.787,397.101 155.879,397.063 155.664 C 397.025 155.449,396.954 155.186,396.905 155.078 C 396.744 154.727,396.440 153.333,396.396 152.751 C 396.373 152.438,396.129 151.748,395.853 151.217 C 395.578 150.686,395.449 150.096,395.566 149.906 C 395.684 149.716,395.455 149.201,395.058 148.762 C 394.661 148.324,394.380 147.895,394.434 147.811 C 394.676 147.428,394.497 146.484,394.182 146.484 C 393.990 146.484,361.729 179.995,322.491 220.952 M200.552 302.539 C 200.552 306.406,200.611 307.935,200.682 305.937 C 200.753 303.939,200.753 300.775,200.681 298.906 C 200.610 297.037,200.552 298.672,200.552 302.539 M236.462 309.713 C 237.202 310.005,235.650 311.650,172.485 377.520 C 163.019 387.392,155.564 395.358,155.919 395.222 C 156.274 395.087,156.673 395.084,156.806 395.217 C 156.939 395.350,157.351 395.490,157.723 395.529 C 158.094 395.568,159.277 395.726,160.352 395.881 C 161.426 396.036,162.524 396.177,162.793 396.193 C 163.062 396.210,163.281 396.326,163.281 396.452 C 163.281 396.577,163.677 396.717,164.160 396.763 C 164.644 396.808,165.566 396.936,166.211 397.048 C 184.807 400.254,217.928 400.342,239.040 397.240 C 272.485 392.326,292.758 380.165,297.275 362.305 C 298.030 359.322,298.064 358.046,298.033 334.277 L 297.999 309.375 266.871 309.402 C 249.750 309.418,236.066 309.557,236.462 309.713 M262.918 335.453 C 274.952 341.261,276.645 356.946,266.098 364.927 C 253.167 374.712,235.004 362.340,239.254 346.641 C 242.000 336.495,253.657 330.984,262.918 335.453 " stroke="none" fill="#fccc39" fill-rule="evenodd"></path><path id="path1" d="M179.297 0.414 C 140.215 3.178,115.032 13.823,106.438 31.211 C 103.475 37.207,103.497 36.937,103.610 65.039 L 103.711 90.039 152.246 90.138 L 200.781 90.237 200.781 96.869 L 200.781 103.500 127.832 103.620 L 54.883 103.740 51.563 104.573 C 17.161 113.207,-0.000 144.915,-0.000 199.846 C 0.000 237.334,7.524 264.936,22.168 281.171 C 22.651 281.707,23.047 282.325,23.047 282.544 C 23.047 282.763,23.153 282.836,23.283 282.706 C 23.413 282.576,23.949 282.933,24.474 283.500 L 25.428 284.529 74.530 235.527 C 129.503 180.666,227.948 82.528,263.189 47.457 C 275.922 34.785,286.161 24.358,285.943 24.286 C 285.725 24.213,285.547 23.894,285.547 23.577 C 285.547 23.260,285.384 23.102,285.184 23.225 C 284.985 23.348,284.712 23.104,284.578 22.682 C 284.445 22.260,284.009 21.811,283.610 21.685 C 283.211 21.558,282.786 21.198,282.666 20.884 C 282.545 20.569,282.177 20.313,281.848 20.313 C 281.519 20.313,281.250 20.049,281.250 19.727 C 281.250 19.404,281.005 19.141,280.706 19.141 C 280.407 19.141,280.061 18.877,279.937 18.555 C 279.813 18.232,279.508 17.969,279.258 17.969 C 279.008 17.969,277.941 17.348,276.885 16.590 C 266.285 8.974,248.170 3.549,224.609 0.934 C 217.985 0.199,187.316 -0.153,179.297 0.414 M148.659 31.286 C 162.247 33.790,167.621 50.453,158.014 60.294 C 147.183 71.387,128.516 63.727,128.516 48.189 C 128.516 37.508,138.221 29.363,148.659 31.286 " stroke="none" fill="#347cb0" fill-rule="evenodd"></path><path id="path2" d="M310.546 125.270 C 310.544 161.328,309.670 166.981,301.894 181.250 C 295.961 192.137,284.246 200.592,270.810 203.686 C 263.412 205.390,261.389 205.462,220.884 205.466 L 182.197 205.469 143.345 246.029 L 104.492 286.589 104.276 282.650 C 104.081 279.108,103.619 341.277,103.776 349.827 C 104.053 364.869,115.728 380.057,132.813 387.602 C 133.564 387.934,135.212 388.662,136.473 389.220 C 137.734 389.778,138.938 390.234,139.148 390.234 C 139.358 390.234,140.084 390.477,140.761 390.773 C 142.274 391.434,145.108 392.404,146.680 392.797 C 147.324 392.959,148.027 393.143,148.242 393.206 C 149.400 393.548,153.855 394.624,154.747 394.778 C 156.175 395.024,237.670 310.189,236.462 309.713 C 236.066 309.557,227.788 309.418,218.066 309.402 L 200.391 309.375 200.391 302.539 L 200.391 295.703 225.684 295.687 L 250.977 295.670 322.404 221.077 C 361.690 180.051,393.989 146.484,394.182 146.484 C 394.374 146.484,394.531 146.777,394.531 147.135 C 394.531 147.493,394.641 147.677,394.775 147.543 C 394.909 147.409,394.882 146.984,394.716 146.599 C 394.549 146.214,394.360 145.723,394.294 145.508 C 393.102 141.588,389.103 132.678,386.213 127.503 C 380.582 117.419,369.927 107.863,359.961 103.961 C 352.429 101.011,352.782 101.048,330.566 100.884 L 310.547 100.736 310.546 125.270 " stroke="none" fill="#fcd643" fill-rule="evenodd"></path><path id="path3" d="M285.557 23.698 C 285.552 23.949,285.725 24.213,285.943 24.286 C 286.161 24.358,275.922 34.785,263.189 47.457 C 227.948 82.528,129.503 180.666,74.530 235.527 L 25.428 284.529 24.433 283.455 C 23.885 282.865,23.437 282.548,23.437 282.752 C 23.437 283.251,29.325 288.503,29.746 288.379 C 29.929 288.325,30.078 288.456,30.078 288.670 C 30.078 290.011,40.404 295.388,46.484 297.212 L 49.805 298.208 70.410 298.342 L 91.016 298.476 91.016 273.693 C 91.016 244.165,91.433 238.801,94.410 230.078 C 94.960 228.467,95.417 226.887,95.426 226.567 C 95.435 226.247,95.679 225.750,95.967 225.461 C 96.256 225.173,96.392 224.775,96.270 224.578 C 96.148 224.380,96.195 224.219,96.376 224.219 C 96.838 224.219,97.682 221.842,97.388 221.367 C 97.250 221.143,97.340 221.094,97.596 221.252 C 97.844 221.405,98.047 221.336,98.047 221.098 C 98.047 220.860,98.660 219.707,99.409 218.536 C 100.158 217.365,100.652 216.406,100.506 216.406 C 100.361 216.406,100.583 216.148,101.000 215.833 C 101.417 215.517,101.582 215.251,101.367 215.241 C 101.112 215.229,101.114 215.123,101.373 214.935 C 102.295 214.269,103.894 212.014,103.685 211.676 C 103.560 211.474,103.602 211.354,103.780 211.409 C 104.219 211.546,105.859 210.085,105.859 209.557 C 105.859 209.323,106.431 208.709,107.129 208.194 C 107.827 207.678,109.110 206.601,109.979 205.800 C 110.849 204.999,113.082 203.388,114.943 202.220 C 116.803 201.052,118.201 199.958,118.049 199.790 C 117.898 199.622,117.982 199.603,118.236 199.749 C 118.490 199.895,119.633 199.595,120.775 199.083 C 125.848 196.808,128.659 195.990,135.938 194.673 C 139.289 194.066,145.072 193.977,195.703 193.756 L 251.758 193.510 256.250 192.509 C 279.779 187.264,293.854 173.109,297.038 151.489 C 297.544 148.057,297.637 139.912,297.667 96.484 C 297.708 39.574,297.890 43.657,295.001 36.781 C 293.144 32.361,285.598 21.908,285.557 23.698 M23.999 119.629 L 22.852 120.898 24.121 119.751 C 24.819 119.120,25.391 118.549,25.391 118.482 C 25.391 118.180,25.068 118.446,23.999 119.629 " stroke="none" fill="#346c94" fill-rule="evenodd"></path><path id="path4" d="M153.711 205.735 C 124.920 208.927,108.256 223.463,104.307 248.828 C 103.886 251.532,103.847 275.017,104.251 282.260 L 104.492 286.591 139.258 250.322 C 158.379 230.373,175.845 212.117,178.072 209.751 L 182.121 205.451 168.502 205.528 C 161.011 205.570,154.355 205.663,153.711 205.735 " stroke="none" fill="#fce454" fill-rule="evenodd"></path></g></svg>